<?xml version="1.0" encoding="UTF-8" standalone="no"?>
<!-- Created with Inkscape (http://www.inkscape.org/) -->

<svg
   xmlns:dc="http://purl.org/dc/elements/1.1/"
   xmlns:cc="http://creativecommons.org/ns#"
   xmlns:rdf="http://www.w3.org/1999/02/22-rdf-syntax-ns#"
   xmlns:svg="http://www.w3.org/2000/svg"
   xmlns="http://www.w3.org/2000/svg"
   xmlns:sodipodi="http://sodipodi.sourceforge.net/DTD/sodipodi-0.dtd"
   xmlns:inkscape="http://www.inkscape.org/namespaces/inkscape"
   width="204.52222mm"
   height="109.55106mm"
   viewBox="0 0 204.52222 109.55106"
   version="1.1"
   id="svg8"
   inkscape:version="0.92+devel unknown"
   sodipodi:docname="lem.svg">
  <defs
     id="defs2">
    <marker
       inkscape:isstock="true"
       style="overflow:visible"
       id="marker5132"
       refX="0"
       refY="0"
       orient="auto"
       inkscape:stockid="Arrow1Lstart">
      <path
         transform="matrix(0.8,0,0,0.8,10,0)"
         style="fill:#000000;fill-opacity:1;fill-rule:evenodd;stroke:#000000;stroke-width:1.00000003pt;stroke-opacity:1"
         d="M 0,0 5,-5 -12.5,0 5,5 Z"
         id="path5130"
         inkscape:connector-curvature="0" />
    </marker>
    <marker
       inkscape:isstock="true"
       style="overflow:visible"
       id="marker5080"
       refX="0"
       refY="0"
       orient="auto"
       inkscape:stockid="Arrow1Lend">
      <path
         transform="matrix(-0.8,0,0,-0.8,-10,0)"
         style="fill:#000000;fill-opacity:1;fill-rule:evenodd;stroke:#000000;stroke-width:1.00000003pt;stroke-opacity:1"
         d="M 0,0 5,-5 -12.5,0 5,5 Z"
         id="path5078"
         inkscape:connector-curvature="0" />
    </marker>
    <marker
       inkscape:stockid="Arrow1Lend"
       orient="auto"
       refY="0"
       refX="0"
       id="Arrow1Lend"
       style="overflow:visible"
       inkscape:isstock="true"
       inkscape:collect="always">
      <path
         id="path4274"
         d="M 0,0 5,-5 -12.5,0 5,5 Z"
         style="fill:#000000;fill-opacity:1;fill-rule:evenodd;stroke:#000000;stroke-width:1.00000003pt;stroke-opacity:1"
         transform="matrix(-0.8,0,0,-0.8,-10,0)"
         inkscape:connector-curvature="0" />
    </marker>
    <marker
       inkscape:stockid="Arrow1Lstart"
       orient="auto"
       refY="0"
       refX="0"
       id="Arrow1Lstart"
       style="overflow:visible"
       inkscape:isstock="true"
       inkscape:collect="always">
      <path
         id="path4271"
         d="M 0,0 5,-5 -12.5,0 5,5 Z"
         style="fill:#000000;fill-opacity:1;fill-rule:evenodd;stroke:#000000;stroke-width:1.00000003pt;stroke-opacity:1"
         transform="matrix(0.8,0,0,0.8,10,0)"
         inkscape:connector-curvature="0" />
    </marker>
    <marker
       inkscape:stockid="Arrow1Lstart"
       orient="auto"
       refY="0"
       refX="0"
       id="Arrow1Lstart-3"
       style="overflow:visible"
       inkscape:isstock="true">
      <path
         inkscape:connector-curvature="0"
         id="path4271-6"
         d="M 0,0 5,-5 -12.5,0 5,5 Z"
         style="fill:#000000;fill-opacity:1;fill-rule:evenodd;stroke:#000000;stroke-width:1.00000003pt;stroke-opacity:1"
         transform="matrix(0.8,0,0,0.8,10,0)" />
    </marker>
    <marker
       inkscape:stockid="Arrow1Lend"
       orient="auto"
       refY="0"
       refX="0"
       id="Arrow1Lend-7"
       style="overflow:visible"
       inkscape:isstock="true">
      <path
         inkscape:connector-curvature="0"
         id="path4274-5"
         d="M 0,0 5,-5 -12.5,0 5,5 Z"
         style="fill:#000000;fill-opacity:1;fill-rule:evenodd;stroke:#000000;stroke-width:1.00000003pt;stroke-opacity:1"
         transform="matrix(-0.8,0,0,-0.8,-10,0)" />
    </marker>
  </defs>
  <sodipodi:namedview
     id="base"
     pagecolor="#ffffff"
     bordercolor="#666666"
     borderopacity="1.0"
     inkscape:pageopacity="0.0"
     inkscape:pageshadow="2"
     inkscape:zoom="1.4142136"
     inkscape:cx="272.97146"
     inkscape:cy="120.56894"
     inkscape:document-units="mm"
     inkscape:current-layer="layer1"
     inkscape:document-rotation="0"
     showgrid="true"
     inkscape:window-width="1920"
     inkscape:window-height="1015"
     inkscape:window-x="0"
     inkscape:window-y="0"
     inkscape:window-maximized="1"
     fit-margin-top="0"
     fit-margin-left="0"
     fit-margin-right="0"
     fit-margin-bottom="0">
    <inkscape:grid
       type="xygrid"
       id="grid4267"
       originx="24.200772"
       originy="-176.88255" />
  </sodipodi:namedview>
  <metadata
     id="metadata5">
    <rdf:RDF>
      <cc:Work
         rdf:about="">
        <dc:format>image/svg+xml</dc:format>
        <dc:type
           rdf:resource="http://purl.org/dc/dcmitype/StillImage" />
        <dc:title></dc:title>
      </cc:Work>
    </rdf:RDF>
  </metadata>
  <g
     inkscape:label="Layer 1"
     inkscape:groupmode="layer"
     id="layer1"
     transform="translate(24.200773,-10.566381)">
    <path
       style="fill:none;stroke:#008000;stroke-width:0.24979021px;stroke-linecap:butt;stroke-linejoin:miter;stroke-opacity:1"
       d="m 57.748181,69.458333 -47.16484,15.875 54.239576,-15.875001"
       id="path5668-5"
       inkscape:connector-curvature="0" />
    <path
       style="fill:none;stroke:#008000;stroke-width:0.25227028px;stroke-linecap:butt;stroke-linejoin:miter;stroke-opacity:1"
       d="m 10.583341,85.333333 26.458326,-15.875"
       id="path5662-3"
       inkscape:connector-curvature="0" />
    <path
       style="fill:none;stroke:#000000;stroke-width:0.27500349;stroke-linecap:butt;stroke-linejoin:miter;stroke-miterlimit:4;stroke-dasharray:1.10001394, 1.10001394;stroke-dashoffset:0;stroke-opacity:1"
       d="M 37.041667,69.458333 H 74.083341"
       id="path5664-6"
       inkscape:connector-curvature="0" />
    <path
       style="fill:none;stroke:#008000;stroke-width:0.2485327px;stroke-linecap:butt;stroke-linejoin:miter;stroke-opacity:1"
       d="m 43.267149,69.458333 -32.683808,15.875 39.687492,-15.875001"
       id="path5666-7"
       inkscape:connector-curvature="0" />
    <text
       xml:space="preserve"
       style="font-style:normal;font-weight:normal;font-size:7.05555534px;line-height:6.61458349px;font-family:sans-serif;text-align:center;letter-spacing:0px;word-spacing:0px;text-anchor:middle;fill:#000000;fill-opacity:1;stroke:none;stroke-width:0.26458332px;stroke-linecap:butt;stroke-linejoin:miter;stroke-opacity:1"
       x="53.055981"
       y="80.495201"
       id="text4783-2-6-3"><tspan
         sodipodi:role="line"
         id="tspan4781-9-1-5"
         x="53.055981"
         y="80.495201"
         style="stroke-width:0.26458332px">K<tspan
   style="font-size:3.52777767px;baseline-shift:sub;stroke-width:0.26458332px"
   id="tspan5213-8-6">s</tspan><tspan
   id="tspan5161"
   style="font-style:normal;font-variant:normal;font-weight:normal;font-stretch:normal;font-size:7.05555534px;line-height:1.7501086px;font-family:sans-serif;font-variant-ligatures:normal;font-variant-position:normal;font-variant-caps:normal;font-variant-numeric:normal;font-variant-alternates:normal;font-variant-east-asian:normal;font-feature-settings:normal;text-indent:0;text-align:start;text-decoration:none;text-decoration-line:none;text-decoration-style:solid;text-decoration-color:#000000;letter-spacing:0px;word-spacing:0px;text-transform:none;writing-mode:lr-tb;direction:ltr;text-orientation:mixed;dominant-baseline:auto;baseline-shift:baseline;text-anchor:start;white-space:normal;shape-padding:0;opacity:1;vector-effect:none;fill:#000000;fill-opacity:1;stroke:none;stroke-width:0.07000434px;stroke-linecap:butt;stroke-linejoin:miter;stroke-miterlimit:4;stroke-dasharray:none;stroke-dashoffset:0;stroke-opacity:1">/</tspan></tspan></text>
    <path
       style="font-style:normal;font-weight:normal;font-size:2050.27807617px;font-family:'Times New Roman';fill:#000000;fill-opacity:1;stroke:none;stroke-width:0.00341071px;stroke-linecap:butt;stroke-linejoin:miter;stroke-opacity:1"
       d="m 48.244527,76.072917 h 0.70339 l -1.36921,2.871594 c 0.0341,0.307303 0.0512,0.575911 0.0512,0.805821 -1e-5,0.639648 -0.11952,0.959472 -0.35852,0.959474 -0.17301,-2e-6 -0.25951,-0.134306 -0.25951,-0.402911 0,-0.350556 0.12747,-0.789888 0.38243,-1.317996 -0.0501,-0.327792 -0.12008,-0.722735 -0.21,-1.184831 -0.0899,-0.462094 -0.1821,-0.793301 -0.27657,-0.99362 -0.0944,-0.200314 -0.22934,-0.300472 -0.40462,-0.300475 -0.28682,3e-6 -0.44046,0.213978 -0.46096,0.641926 h -0.12292 c 0,-0.751187 0.22308,-1.126782 0.66924,-1.126785 0.25723,3e-6 0.44844,0.151948 0.57365,0.455836 0.12518,0.303892 0.2538,0.964597 0.38583,1.982115 z"
       id="text2175-2"
       inkscape:connector-curvature="0"
       sodipodi:nodetypes="cccccccccccccccc" />
    <path
       style="fill:none;stroke:#000000;stroke-width:0.21598527;stroke-linecap:butt;stroke-linejoin:miter;stroke-miterlimit:4;stroke-dasharray:none;stroke-opacity:1;marker-start:url(#Arrow1Lstart);marker-end:url(#Arrow1Lend)"
       d="M 10.847646,10.985687 V 85.069023 H 84.666667"
       id="path4269"
       inkscape:connector-curvature="0" />
    <path
       style="fill:none;stroke:#ff0000;stroke-width:0.26458332px;stroke-linecap:butt;stroke-linejoin:miter;stroke-opacity:1"
       d="m 10.847646,85.069023 26.458333,-54.23959 v 54.23959"
       id="path4585"
       inkscape:connector-curvature="0" />
    <path
       style="fill:none;stroke:#000000;stroke-width:0.23534228;stroke-linecap:butt;stroke-linejoin:miter;stroke-miterlimit:4;stroke-dasharray:0.94136913, 1.88273828;stroke-dashoffset:0;stroke-opacity:1"
       d="M 10.847646,30.829433 H 82.020833"
       id="path4587"
       inkscape:connector-curvature="0" />
    <text
       xml:space="preserve"
       style="font-style:normal;font-weight:normal;font-size:7.05555534px;line-height:6.61458302px;font-family:sans-serif;text-align:center;letter-spacing:0px;word-spacing:0px;text-anchor:middle;fill:#000000;fill-opacity:1;stroke:none;stroke-width:0.26458332px;stroke-linecap:butt;stroke-linejoin:miter;stroke-opacity:1"
       x="18.785145"
       y="58.610699"
       id="text4783"><tspan
         sodipodi:role="line"
         id="tspan4781"
         x="18.785145"
         y="58.610699"
         style="stroke-width:0.26458332px">k<tspan
   style="font-size:3.52777767px;baseline-shift:sub"
   id="tspan4785">n</tspan></tspan></text>
    <path
       style="fill:none;stroke:#000000;stroke-width:0.20850091;stroke-linecap:butt;stroke-linejoin:miter;stroke-miterlimit:4;stroke-dasharray:none;stroke-opacity:1;marker-start:url(#Arrow1Lstart-3);marker-end:url(#Arrow1Lend-7)"
       d="m 111.12493,11.250053 v 74.08328 h 68.79174"
       id="path4269-3"
       inkscape:connector-curvature="0" />
    <path
       style="fill:none;stroke:#000000;stroke-width:0.22229446;stroke-linecap:butt;stroke-linejoin:miter;stroke-miterlimit:4;stroke-dasharray:0.88917789, 1.77835578;stroke-dashoffset:0;stroke-opacity:1"
       d="M 111.12493,31.093743 H 174.625"
       id="path4587-6"
       inkscape:connector-curvature="0" />
    <text
       xml:space="preserve"
       style="font-style:normal;font-weight:normal;font-size:7.05555534px;line-height:6.61458349px;font-family:sans-serif;text-align:center;letter-spacing:0px;word-spacing:0px;text-anchor:middle;fill:#000000;fill-opacity:1;stroke:none;stroke-width:0.26458332px;stroke-linecap:butt;stroke-linejoin:miter;stroke-opacity:1"
       x="119.06203"
       y="58.875866"
       id="text4783-2"><tspan
         sodipodi:role="line"
         id="tspan4781-9"
         x="119.06203"
         y="58.875866"
         style="stroke-width:0.26458332px">K<tspan
   style="font-size:3.52777767px;baseline-shift:sub"
   id="tspan5213">s</tspan></tspan></text>
    <text
       xml:space="preserve"
       style="font-style:normal;font-weight:normal;font-size:7.05555534px;line-height:6.61458302px;font-family:sans-serif;text-align:center;letter-spacing:0px;word-spacing:0px;text-anchor:middle;fill:#000000;fill-opacity:1;stroke:none;stroke-width:0.26458332px;stroke-linecap:butt;stroke-linejoin:miter;stroke-opacity:1"
       x="6.8791699"
       y="29.770834"
       id="text5217"><tspan
         sodipodi:role="line"
         id="tspan5215"
         x="6.8791699"
         y="29.770834"
         style="stroke-width:0.26458332px">f<tspan
   style="font-size:3.52777767px;baseline-shift:sub"
   id="tspan5219">st</tspan></tspan></text>
    <text
       xml:space="preserve"
       style="font-style:normal;font-weight:normal;font-size:7.05555534px;line-height:6.61458349px;font-family:sans-serif;text-align:center;letter-spacing:0px;word-spacing:0px;text-anchor:middle;fill:#000000;fill-opacity:1;stroke:none;stroke-width:0.26458332px;stroke-linecap:butt;stroke-linejoin:miter;stroke-opacity:1"
       x="107.42085"
       y="29.770836"
       id="text5217-2"><tspan
         sodipodi:role="line"
         id="tspan5215-7"
         x="107.42085"
         y="29.770836"
         style="stroke-width:0.26458332px">f<tspan
   style="font-size:3.52777767px;baseline-shift:sub;stroke-width:0.26458332px"
   id="tspan5219-0">ss</tspan></tspan></text>
    <text
       xml:space="preserve"
       style="font-style:normal;font-weight:normal;font-size:7.05555534px;line-height:6.61458349px;font-family:sans-serif;text-align:center;letter-spacing:0px;word-spacing:0px;text-anchor:middle;fill:#000000;fill-opacity:1;stroke:none;stroke-width:0.26458332px;stroke-linecap:butt;stroke-linejoin:miter;stroke-opacity:1"
       x="77.362724"
       y="92.728241"
       id="text5217-9"><tspan
         sodipodi:role="line"
         id="tspan5215-3"
         x="77.362724"
         y="92.728241"
         style="stroke-width:0.26458332px">d<tspan
   style="font-size:3.52777767px;baseline-shift:sub;stroke-width:0.26458332px"
   id="tspan5219-6">t</tspan></tspan></text>
    <text
       xml:space="preserve"
       style="font-style:normal;font-weight:normal;font-size:7.05555534px;line-height:6.61458349px;font-family:sans-serif;text-align:center;letter-spacing:0px;word-spacing:0px;text-anchor:middle;fill:#000000;fill-opacity:1;stroke:none;stroke-width:0.26458332px;stroke-linecap:butt;stroke-linejoin:miter;stroke-opacity:1"
       x="175.25856"
       y="92.728241"
       id="text5217-9-0"><tspan
         sodipodi:role="line"
         id="tspan5215-3-6"
         x="175.25856"
         y="92.728241"
         style="stroke-width:0.26458332px">d<tspan
   style="font-size:3.52777767px;baseline-shift:sub;stroke-width:0.26458332px"
   id="tspan5219-6-2">s</tspan></tspan></text>
    <path
       style="fill:none;stroke:#ff0000;stroke-width:0.26787019px;stroke-linecap:butt;stroke-linejoin:miter;stroke-opacity:1"
       d="M 111.125,85.333334 140.22916,31.09375 v 37.967709"
       id="path5660"
       inkscape:connector-curvature="0" />
    <path
       style="fill:none;stroke:#008000;stroke-width:0.26458332px;stroke-linecap:butt;stroke-linejoin:miter;stroke-opacity:1"
       d="m 111.125,85.333334 29.10416,-15.875"
       id="path5662"
       inkscape:connector-curvature="0" />
    <path
       style="fill:none;stroke:#000000;stroke-width:0.26499999;stroke-linecap:butt;stroke-linejoin:miter;stroke-miterlimit:4;stroke-dasharray:1.05999995, 1.05999995;stroke-dashoffset:0;stroke-opacity:1"
       d="M 140.22916,69.458334 H 174.625"
       id="path5664"
       inkscape:connector-curvature="0" />
    <path
       style="fill:none;stroke:#008000;stroke-width:0.26458332px;stroke-linecap:butt;stroke-linejoin:miter;stroke-opacity:1"
       d="m 148.16666,69.458334 -37.04166,15.875 44.97917,-15.875001"
       id="path5666"
       inkscape:connector-curvature="0" />
    <path
       style="fill:none;stroke:#008000;stroke-width:0.26458332px;stroke-linecap:butt;stroke-linejoin:miter;stroke-opacity:1"
       d="m 164.04166,69.458334 -52.91666,15.875 60.85417,-15.875001"
       id="path5668"
       inkscape:connector-curvature="0" />
    <text
       xml:space="preserve"
       style="font-style:normal;font-weight:normal;font-size:7.05555534px;line-height:6.61458349px;font-family:sans-serif;text-align:center;letter-spacing:0px;word-spacing:0px;text-anchor:middle;fill:#000000;fill-opacity:1;stroke:none;stroke-width:0.26458332px;stroke-linecap:butt;stroke-linejoin:miter;stroke-opacity:1"
       x="129.02007"
       y="71.478722"
       id="text4783-2-6"><tspan
         sodipodi:role="line"
         id="tspan4781-9-1"
         x="129.02007"
         y="71.478722"
         style="stroke-width:0.26458332px">K<tspan
   style="font-size:3.52777767px;baseline-shift:sub;stroke-width:0.26458332px"
   id="tspan5213-8">s</tspan></tspan></text>
    <text
       xml:space="preserve"
       style="font-style:normal;font-variant:normal;font-weight:normal;font-stretch:normal;font-size:7.05555534px;line-height:6.61458302px;font-family:'Accanthis ADF Std No3';-inkscape-font-specification:'Accanthis ADF Std No3';text-align:center;letter-spacing:0px;word-spacing:0px;text-anchor:middle;fill:none;stroke:#000000;stroke-width:0.26458332px;stroke-linecap:butt;stroke-linejoin:miter;stroke-opacity:1"
       x="52.916664"
       y="5.9583335"
       id="text5693"><tspan
         sodipodi:role="line"
         id="tspan5691"
         x="52.916664"
         y="11.029514"
         style="font-style:normal;font-variant:normal;font-weight:normal;font-stretch:normal;font-family:'Accanthis ADF Std No3';-inkscape-font-specification:'Accanthis ADF Std No3';stroke-width:0.26458332px" /></text>
    <path
       style="font-style:normal;font-weight:normal;font-size:2050.27807617px;font-family:'Times New Roman';fill:#000000;fill-opacity:1;stroke:none;stroke-width:0.00341071px;stroke-linecap:butt;stroke-linejoin:miter;stroke-opacity:1"
       d="m 124.73778,67.056435 h 0.70339 l -1.36921,2.871594 c 0.0341,0.307303 0.0512,0.575911 0.0512,0.805821 -1e-5,0.639648 -0.11952,0.959472 -0.35852,0.959474 -0.17301,-2e-6 -0.25951,-0.134306 -0.25951,-0.402911 0,-0.350556 0.12747,-0.789888 0.38243,-1.317996 -0.0501,-0.327792 -0.12008,-0.722735 -0.21,-1.184831 -0.0899,-0.462094 -0.1821,-0.793301 -0.27657,-0.99362 -0.0944,-0.200314 -0.22934,-0.300472 -0.40462,-0.300475 -0.28682,3e-6 -0.44046,0.213978 -0.46096,0.641926 h -0.12292 c 0,-0.751187 0.22308,-1.126782 0.66924,-1.126785 0.25723,3e-6 0.44844,0.151948 0.57365,0.455836 0.12518,0.303892 0.2538,0.964597 0.38583,1.982115 z"
       id="text2175"
       inkscape:connector-curvature="0"
       sodipodi:nodetypes="cccccccccccccccc" />
    <text
       xml:space="preserve"
       style="font-style:normal;font-weight:normal;font-size:7.05555534px;line-height:6.61458349px;font-family:sans-serif;text-align:center;letter-spacing:0px;word-spacing:0px;text-anchor:middle;fill:#000000;fill-opacity:1;stroke:none;stroke-width:0.26458332px;stroke-linecap:butt;stroke-linejoin:miter;stroke-opacity:1"
       x="26.86223"
       y="72.028534"
       id="text4783-2-6-3-9"><tspan
         sodipodi:role="line"
         id="tspan4781-9-1-5-1"
         x="26.86223"
         y="72.028534"
         style="stroke-width:0.26458332px">K<tspan
   style="font-size:3.52777767px;baseline-shift:sub;stroke-width:0.26458332px"
   id="tspan5213-8-6-2">n</tspan></tspan></text>
    <path
       style="font-style:normal;font-weight:normal;font-size:2050.27807617px;font-family:'Times New Roman';fill:#000000;fill-opacity:1;stroke:none;stroke-width:0.00341071px;stroke-linecap:butt;stroke-linejoin:miter;stroke-opacity:1"
       d="m 22.579943,67.606249 h 0.70339 l -1.36921,2.871594 c 0.0341,0.307303 0.0512,0.575911 0.0512,0.805821 -1e-5,0.639648 -0.11952,0.959472 -0.35852,0.959474 -0.17301,-2e-6 -0.25951,-0.134306 -0.25951,-0.402911 0,-0.350556 0.12747,-0.789888 0.38243,-1.317996 -0.0501,-0.327792 -0.12008,-0.722735 -0.21,-1.184831 -0.0899,-0.462094 -0.1821,-0.793301 -0.27657,-0.99362 -0.0944,-0.200314 -0.22934,-0.300472 -0.40462,-0.300475 -0.28682,3e-6 -0.44046,0.213978 -0.46096,0.641926 h -0.12292 c 0,-0.751187 0.22308,-1.126782 0.66924,-1.126785 0.25723,3e-6 0.44844,0.151948 0.57365,0.455836 0.12518,0.303892 0.2538,0.964597 0.38583,1.982115 z"
       id="text2175-2-7"
       inkscape:connector-curvature="0"
       sodipodi:nodetypes="cccccccccccccccc" />
    <text
       xml:space="preserve"
       style="font-style:normal;font-weight:normal;font-size:4.52330065px;line-height:4.24059486px;font-family:sans-serif;text-align:center;letter-spacing:0px;word-spacing:0px;text-anchor:middle;fill:#000000;fill-opacity:1;stroke:none;stroke-width:0.16962378px;stroke-linecap:butt;stroke-linejoin:miter;stroke-opacity:1"
       x="149.13817"
       y="68.034348"
       id="text4783-2-6-0"><tspan
         sodipodi:role="line"
         id="tspan4781-9-1-9"
         x="149.13817"
         y="68.034348"
         style="stroke-width:0.16962378px">f<tspan
   style="font-size:2.26165032px;baseline-shift:sub;stroke-width:0.16962378px"
   id="tspan5213-8-3">ss</tspan></tspan></text>
    <path
       style="font-style:normal;font-weight:normal;font-size:2050.27807617px;font-family:'Times New Roman';fill:#000000;fill-opacity:1;stroke:none;stroke-width:0.0021866px;stroke-linecap:butt;stroke-linejoin:miter;stroke-opacity:1"
       d="m 146.39281,65.199233 h 0.45094 l -0.8778,1.840973 c 0.0219,0.197011 0.0328,0.369215 0.0328,0.51661 -1e-5,0.410076 -0.0766,0.615115 -0.22985,0.615116 -0.11092,-10e-7 -0.16637,-0.0861 -0.16637,-0.258305 0,-0.224741 0.0817,-0.506396 0.24517,-0.844964 -0.0321,-0.210147 -0.077,-0.463344 -0.13463,-0.759593 -0.0576,-0.296247 -0.11674,-0.508583 -0.1773,-0.637008 -0.0605,-0.12842 -0.14703,-0.192631 -0.25941,-0.192633 -0.18388,2e-6 -0.28237,0.13718 -0.29552,0.411537 h -0.0788 c 0,-0.481584 0.14302,-0.722377 0.42905,-0.722379 0.16491,2e-6 0.28749,0.09741 0.36776,0.292235 0.0803,0.194825 0.16271,0.618401 0.24736,1.27073 z"
       id="text2175-6"
       inkscape:connector-curvature="0"
       sodipodi:nodetypes="cccccccccccccccc" />
    <path
       style="stroke-width:0.00372865"
       id="text2175-3"
       d="m 60.030878,77.660416 h 0.634617 l -0.384424,1.728268 c -0.07457,0.328494 -0.125656,0.530065 -0.153248,0.604713 0.09955,0.457916 0.243854,0.686856 0.43327,0.686856 0.223719,0 0.33968,-0.154292 0.347137,-0.462875 h 0.134231 c -0.0075,0.288672 -0.0604,0.521974 -0.158467,0.699905 -0.09844,0.178006 -0.227075,0.266748 -0.386661,0.266748 -0.131622,0 -0.230059,-0.05332 -0.294564,-0.160369 -0.06488,-0.107013 -0.134605,-0.325996 -0.209178,-0.656952 -0.258768,0.54498 -0.68197,0.817321 -1.269234,0.817321 -0.400457,0 -0.719257,-0.156007 -0.955654,-0.468318 -0.236396,-0.312312 -0.354594,-0.759639 -0.354594,-1.341943 0,-0.572349 0.129384,-1.017811 0.388153,-1.33635 0.258768,-0.318524 0.570111,-0.47779 0.933281,-0.47779 0.256532,0 0.466828,0.09083 0.630889,0.27249 0.164433,0.18166 0.309851,0.47779 0.436625,0.888427 z m -0.328494,1.463273 c -0.11708,-0.400682 -0.247583,-0.71359 -0.391882,-0.938801 -0.144299,-0.22521 -0.317309,-0.337816 -0.519029,-0.337816 -0.455268,0 -0.683089,0.532527 -0.683089,1.597616 0,1.010354 0.217753,1.515512 0.65326,1.515512 0.378458,0 0.658481,-0.445425 0.840066,-1.33635 z"
       inkscape:connector-curvature="0"
       sodipodi:nodetypes="ccccscccsccssscsccccsssscc" />
    <path
       style="fill:none;stroke:#000000;stroke-width:0.2;stroke-linecap:butt;stroke-linejoin:miter;stroke-miterlimit:4;stroke-dasharray:none;stroke-opacity:1;marker-start:url(#marker5132);marker-end:url(#marker5080)"
       d="M 10.583333,119.72917 V 85.333334 H -23.8125"
       id="path5070"
       inkscape:connector-curvature="0" />
    <path
       style="fill:none;stroke:#0000ff;stroke-width:0.44999999;stroke-linecap:butt;stroke-linejoin:miter;stroke-miterlimit:4;stroke-dasharray:none;stroke-opacity:1"
       d="M 10.583333,85.333334 -21.407196,103.85417"
       id="path5428"
       inkscape:connector-curvature="0" />
    <text
       xml:space="preserve"
       style="font-style:normal;font-weight:normal;font-size:7.05555534px;line-height:6.61458349px;font-family:sans-serif;text-align:center;letter-spacing:0px;word-spacing:0px;text-anchor:middle;fill:#000000;fill-opacity:1;stroke:none;stroke-width:0.26458332px;stroke-linecap:butt;stroke-linejoin:miter;stroke-opacity:1"
       x="4.9018135"
       y="97.693115"
       id="text4783-2-6-3-9-6"><tspan
         sodipodi:role="line"
         id="tspan4781-9-1-5-1-7"
         x="4.9018135"
         y="97.693115"
         style="stroke-width:0.26458332px">K<tspan
   style="font-size:3.52777767px;baseline-shift:sub;stroke-width:0.26458332px"
   id="tspan5213-8-6-2-5">n</tspan></tspan></text>
    <path
       style="font-style:normal;font-weight:normal;font-size:2050.27807617px;font-family:'Times New Roman';fill:#000000;fill-opacity:1;stroke:none;stroke-width:0.00341071px;stroke-linecap:butt;stroke-linejoin:miter;stroke-opacity:1"
       d="M 0.61952638,93.270832 H 1.3229164 l -1.36920996,2.871595 c 0.0341,0.307303 0.0512,0.57591 0.0512,0.80582 -10e-6,0.639649 -0.11952,0.959472 -0.35852,0.959475 -0.17300997,-3e-6 -0.25950997,-0.134306 -0.25950997,-0.402911 0,-0.350557 0.12747,-0.789889 0.38242997,-1.317997 -0.0501,-0.327792 -0.12008,-0.722735 -0.21,-1.184831 -0.0899,-0.462094 -0.18209997,-0.793301 -0.27656997,-0.99362 -0.0944,-0.200314 -0.22934,-0.300472 -0.40461997,-0.300475 -0.28682,3e-6 -0.44046,0.213978 -0.46096,0.641926 h -0.12292 c 0,-0.751187 0.22308,-1.126782 0.66924,-1.126785 0.25722997,3e-6 0.44843997,0.151948 0.57364994,0.455836 0.12518,0.303892 0.2538,0.964597 0.38583,1.982115 z"
       id="text2175-2-7-3"
       inkscape:connector-curvature="0"
       sodipodi:nodetypes="cccccccccccccccc" />
    <path
       style="fill:none;stroke:#0000ff;stroke-width:0.00012074;stroke-linecap:butt;stroke-linejoin:miter;stroke-miterlimit:4;stroke-dasharray:none;stroke-opacity:1"
       d="m 26.33807,85.333333 -15.995268,3e-6"
       id="path5428-5"
       inkscape:connector-curvature="0" />
    <path
       style="fill:none;stroke:#0000ff;stroke-width:0.55132556;stroke-linecap:butt;stroke-linejoin:miter;stroke-miterlimit:4;stroke-dasharray:none;stroke-opacity:1"
       d="m 66.145833,85.333333 -55.48589,2e-6"
       id="path5428-6"
       inkscape:connector-curvature="0" />
    <text
       xml:space="preserve"
       style="font-style:normal;font-weight:normal;font-size:4.52330065px;line-height:4.24059486px;font-family:sans-serif;text-align:center;letter-spacing:0px;word-spacing:0px;text-anchor:middle;fill:#000000;fill-opacity:1;stroke:none;stroke-width:0.16962378px;stroke-linecap:butt;stroke-linejoin:miter;stroke-opacity:1"
       x="44.892342"
       y="67.50518"
       id="text4783-2-6-0-2"><tspan
         sodipodi:role="line"
         id="tspan4781-9-1-9-9"
         x="44.892342"
         y="67.50518"
         style="stroke-width:0.16962378px">f<tspan
   style="font-size:2.26165032px;baseline-shift:sub;stroke-width:0.16962378px"
   id="tspan5213-8-3-1">st</tspan></tspan></text>
    <path
       style="font-style:normal;font-weight:normal;font-size:2050.27807617px;font-family:'Times New Roman';fill:#000000;fill-opacity:1;stroke:none;stroke-width:0.0021866px;stroke-linecap:butt;stroke-linejoin:miter;stroke-opacity:1"
       d="m 42.146979,64.670066 h 0.45094 l -0.8778,1.840973 c 0.0219,0.197011 0.0328,0.369215 0.0328,0.51661 -10e-6,0.410076 -0.0766,0.615115 -0.22985,0.615116 -0.11092,-10e-7 -0.16637,-0.0861 -0.16637,-0.258305 0,-0.224741 0.0817,-0.506396 0.24517,-0.844964 -0.0321,-0.210147 -0.077,-0.463344 -0.13463,-0.759593 -0.0576,-0.296247 -0.11674,-0.508583 -0.1773,-0.637008 -0.0605,-0.12842 -0.14703,-0.192631 -0.25941,-0.192633 -0.18388,2e-6 -0.28237,0.13718 -0.29552,0.411537 h -0.0788 c 0,-0.481584 0.14302,-0.722377 0.42905,-0.722379 0.16491,2e-6 0.28749,0.09741 0.36776,0.292235 0.0803,0.194825 0.16271,0.618401 0.24736,1.27073 z"
       id="text2175-6-2"
       inkscape:connector-curvature="0"
       sodipodi:nodetypes="cccccccccccccccc" />
    <path
       style="fill:none;stroke:#000000;stroke-width:0.45;stroke-linecap:butt;stroke-linejoin:miter;stroke-opacity:1;stroke-miterlimit:4;stroke-dasharray:none"
       d="m 10.583331,85.333328 26.458333,-15.875"
       id="path5544"
       inkscape:connector-curvature="0" />
    <text
       xml:space="preserve"
       style="font-style:normal;font-weight:normal;font-size:7.05555534px;line-height:6.61458302px;font-family:sans-serif;text-align:start;letter-spacing:0px;word-spacing:0px;text-anchor:start;fill:#000000;fill-opacity:1;stroke:none;stroke-width:0.26458332px;stroke-linecap:butt;stroke-linejoin:miter;stroke-opacity:1"
       x="12.699994"
       y="109.14583"
       id="text5548"><tspan
         sodipodi:role="line"
         id="tspan5546"
         x="12.699994"
         y="109.14583"
         style="text-align:start;text-anchor:start;stroke-width:0.26458332px">tension/compression</tspan></text>
    <text
       xml:space="preserve"
       style="font-style:normal;font-weight:normal;font-size:7.05555534px;line-height:6.61458302px;font-family:sans-serif;text-align:center;letter-spacing:0px;word-spacing:0px;text-anchor:middle;fill:#000000;fill-opacity:1;stroke:none;stroke-width:0.26458332px;stroke-linecap:butt;stroke-linejoin:miter;stroke-opacity:1"
       x="150.8125"
       y="109.14583"
       id="text5552"><tspan
         sodipodi:role="line"
         id="tspan5550"
         x="150.8125"
         y="109.14583"
         style="stroke-width:0.26458332px">shear</tspan></text>
  </g>
</svg>
